<svg xmlns="http://www.w3.org/2000/svg" xmlns:xlink="http://www.w3.org/1999/xlink" width="1500" height="1500" viewBox="0 0 1500 1500">
  <defs>
    <style>
      .cls-1 {
        clip-path: url(#clip-custom_1);
      }

      .cls-2 {
        fill: #fff;
        stroke: #303133;
        stroke-width: 20px;
      }

      .cls-3 {
        filter: url(#SOJ);
      }
    </style>
    <filter id="SOJ" x="370.027" y="244.125" width="760.722" height="1017.326" filterUnits="userSpaceOnUse">
      <feOffset dy="3" input="SourceAlpha"/>
      <feGaussianBlur stdDeviation="3" result="blur"/>
      <feFlood flood-color="#303133" flood-opacity="0.502"/>
      <feComposite operator="in" in2="blur"/>
      <feComposite in="SourceGraphic"/>
    </filter>
    <clipPath id="clip-custom_1">
      <rect width="1500" height="1500"/>
    </clipPath>
  </defs>
  <g id="custom_1" data-name="custom – 1" class="cls-1">
    <g class="cls-3" transform="matrix(1, 0, 0, 1, 0, 0)">
      <path id="SOJ-2" data-name="SOJ" class="cls-2" d="M191.9,728.948,196,731Zm0,0L-204,531,191.9,728.948,187.777,731Zm0,0L483.777,583.492V296.5l5,2.5-5-2.5V583.492l5-2.492-5,2.492ZM483.777,583.492v0ZM-158,184.5,237,382ZM88.777,99l395,197.5ZM-158,184.5l-5-2.5,5,2.5v0Zm0,0v-287L133.389-248.195,137-250l-3.611,1.805L529.777-50,133.389-248.195-158-102.5Zm0-287-5,2.5ZM129.777-250l3.612,1.805Z" transform="translate(587.5 509.5)"/>
    </g>
  </g>
</svg>
